<?xml version="1.0" standalone="no"?>
<!DOCTYPE svg PUBLIC "-//W3C//DTD SVG 20010904//EN"
 "http://www.w3.org/TR/2001/REC-SVG-20010904/DTD/svg10.dtd">
<svg version="1.0" xmlns="http://www.w3.org/2000/svg"
 width="1280.000000pt" height="1004.000000pt" viewBox="0 0 1280.000000 1004.000000"
 preserveAspectRatio="xMidYMid meet">
<metadata>
Created by potrace 1.15, written by Peter Selinger 2001-2017
</metadata>
<g transform="translate(0.000000,1004.000000) scale(0.100000,-0.100000)"
fill="#000000" stroke="none">
<path d="M10412 10028 c-7 -7 -12 -19 -12 -27 0 -8 -11 -47 -25 -87 -30 -88
-34 -206 -11 -334 9 -47 16 -113 16 -147 0 -57 -3 -65 -47 -125 -25 -34 -180
-196 -343 -358 -163 -162 -319 -326 -348 -365 -60 -80 -132 -215 -157 -293
-25 -76 -13 -105 103 -251 55 -69 123 -168 152 -221 37 -69 82 -130 151 -206
54 -60 111 -131 126 -159 28 -51 32 -89 22 -211 -3 -43 1 -58 26 -99 40 -65
106 -115 151 -115 18 0 57 9 86 20 77 29 91 26 138 -27 63 -72 72 -95 81 -217
14 -188 70 -368 204 -655 81 -174 155 -382 155 -435 0 -66 -34 -61 -151 25
-97 71 -215 188 -264 262 -19 29 -57 103 -84 165 -95 216 -226 379 -363 452
-173 92 -415 67 -527 -54 l-24 -26 23 0 c13 0 44 12 69 27 45 27 49 28 206 28
149 0 163 -2 209 -24 109 -54 190 -152 324 -391 143 -257 180 -306 307 -410
107 -87 167 -121 329 -184 111 -44 155 -67 201 -105 33 -27 87 -63 121 -79
117 -57 243 -198 319 -357 44 -93 105 -270 105 -306 0 -24 -4 -29 -25 -29 -28
0 -89 32 -125 65 -33 31 -90 54 -113 46 -17 -6 -16 -9 6 -33 13 -14 58 -44 99
-67 41 -22 85 -52 99 -67 24 -25 24 -26 4 -41 -33 -25 -208 -110 -249 -121
l-38 -11 -105 85 c-57 46 -125 95 -151 108 -68 35 -131 95 -138 133 -8 41 18
59 115 77 100 19 146 52 104 74 -33 17 -198 60 -308 81 -60 11 -164 30 -230
42 -153 27 -266 60 -382 109 -53 23 -117 42 -150 46 -32 3 -87 15 -123 26 -99
30 -306 141 -385 204 -69 56 -151 101 -162 90 -12 -12 16 -54 62 -92 25 -21
72 -61 103 -87 72 -62 89 -70 318 -161 133 -52 226 -82 314 -100 240 -51 270
-65 255 -119 -4 -12 -37 -87 -75 -167 -98 -208 -123 -293 -124 -410 -1 -84 2
-101 26 -150 39 -79 120 -167 168 -181 33 -10 43 -9 65 5 33 22 32 42 -3 60
-36 19 -150 140 -163 173 -22 59 5 131 68 182 169 136 155 126 322 228 77 47
103 44 182 -19 35 -28 89 -74 119 -101 30 -28 87 -74 127 -104 40 -29 83 -68
97 -86 30 -39 56 -132 56 -199 0 -59 19 -148 31 -148 23 0 28 52 15 143 -8 50
-17 100 -21 109 -18 45 44 131 103 144 57 12 149 61 190 102 l43 43 42 -29
c128 -87 188 -131 237 -172 30 -26 82 -66 115 -90 70 -52 486 -463 539 -533
83 -111 35 -197 -210 -378 -112 -83 -401 -277 -577 -389 -149 -94 -397 -266
-546 -379 -142 -106 -402 -351 -503 -472 -219 -263 -276 -323 -344 -356 -33
-16 -74 -21 -74 -8 0 2 45 83 100 179 111 194 170 316 170 352 0 47 -65 68
-120 39 -55 -28 -195 -124 -242 -166 -56 -48 -65 -85 -20 -76 43 8 100 32 120
50 25 23 49 21 63 -4 17 -33 4 -85 -40 -153 -22 -33 -45 -72 -51 -86 -6 -14
-29 -35 -50 -48 -52 -29 -87 -78 -116 -158 -28 -76 -30 -116 -8 -138 19 -20
35 -12 94 48 24 25 50 46 57 46 7 0 20 -11 29 -25 14 -22 14 -27 0 -56 -19
-39 -20 -53 -3 -67 10 -8 27 -5 66 13 29 14 62 25 73 25 17 0 20 -5 14 -30 -5
-30 -224 -517 -265 -590 -27 -51 -60 -59 -118 -31 l-46 22 -31 -29 c-17 -16
-83 -63 -146 -105 -144 -94 -150 -100 -114 -123 27 -18 28 -18 108 24 45 23
93 42 109 42 71 0 54 -107 -48 -310 -70 -138 -100 -233 -91 -285 l7 -33 -73
-7 c-231 -24 -1966 -28 -2088 -6 -63 12 -100 32 -100 56 0 6 23 40 50 75 28
34 49 67 47 74 -2 6 -27 12 -56 14 -32 2 -54 8 -57 17 -3 7 32 60 78 118 101
127 143 197 293 487 132 256 211 375 341 510 54 57 105 122 126 161 20 36 80
133 134 214 56 85 118 196 146 259 57 129 88 171 246 337 184 193 213 246 214
386 l0 82 142 94 c165 111 241 173 470 385 204 190 290 286 283 316 -3 12 -11
41 -17 65 -13 54 -80 132 -295 346 -226 226 -380 356 -567 479 l-86 58 1 91
c1 72 -4 108 -22 162 -32 95 -75 178 -115 223 -63 69 -81 117 -81 212 1 108
23 162 144 354 136 216 138 223 166 441 19 145 19 147 61 207 18 27 42 74 54
106 38 98 42 267 9 329 -15 29 -91 88 -184 143 -121 73 -161 134 -191 295 -28
152 -51 247 -74 309 -26 71 -28 157 -5 192 8 13 20 24 26 24 18 0 60 53 92
115 40 78 44 167 8 233 -53 102 -174 183 -299 200 -34 5 -63 11 -65 13 -2 2
-13 38 -26 79 -33 107 -101 261 -189 434 -77 151 -121 208 -214 280 l-35 26
-54 -19 c-105 -36 -269 -132 -331 -193 -10 -10 -32 -18 -49 -18 -27 0 -30 3
-24 23 13 44 69 125 141 205 41 45 84 101 96 125 33 62 31 170 -7 312 -22 86
-29 132 -29 212 -1 74 -4 103 -13 103 -22 0 -43 -46 -56 -121 -9 -53 -16 -74
-27 -74 -30 0 -35 49 -13 137 19 79 20 158 2 158 -42 0 -66 -277 -46 -519 12
-144 6 -153 -287 -446 -133 -133 -255 -246 -271 -253 -17 -7 -42 -31 -57 -55
-31 -48 -63 -88 -129 -161 -103 -113 -159 -219 -159 -299 0 -41 128 -240 492
-768 22 -32 47 -65 57 -75 16 -17 16 -22 4 -40 -7 -12 -18 -47 -23 -78 -12
-74 17 -175 64 -221 45 -45 152 -74 210 -56 97 29 121 23 202 -51 43 -40 44
-42 44 -105 0 -186 96 -489 281 -885 73 -157 79 -176 79 -234 0 -87 -4 -86
-153 28 -149 114 -214 202 -344 466 -47 95 -111 208 -142 250 -63 84 -151 169
-185 177 -53 14 -203 21 -233 12 -42 -13 -42 -27 -2 -27 37 0 224 -47 260 -66
57 -29 129 -127 206 -279 102 -201 203 -371 264 -446 72 -85 150 -139 334
-230 227 -112 400 -241 564 -423 145 -160 231 -316 231 -416 0 -80 -13 -79
-170 6 -74 40 -151 84 -170 97 -51 35 -67 38 -86 20 -15 -16 -15 -18 6 -35 12
-10 88 -54 168 -98 81 -45 158 -89 172 -100 l25 -19 -19 -35 c-10 -19 -34 -42
-52 -51 -39 -18 -94 -63 -94 -76 0 -5 16 -9 35 -9 28 0 47 11 101 60 43 39 75
60 90 60 48 0 242 -153 615 -488 140 -125 276 -269 305 -324 8 -15 14 -47 14
-70 0 -42 -4 -47 -72 -108 -39 -36 -83 -77 -97 -92 -14 -15 -47 -44 -72 -65
-25 -21 -109 -92 -186 -158 -77 -66 -164 -138 -192 -160 -28 -22 -61 -48 -73
-59 -122 -101 -344 -257 -440 -309 -183 -101 -373 -278 -698 -651 -134 -154
-320 -315 -351 -304 -15 5 52 182 108 288 87 163 96 182 101 225 5 49 -13 69
-63 69 -25 0 -61 -20 -150 -83 -65 -46 -134 -89 -153 -94 -44 -14 -87 -64 -71
-83 17 -20 49 -17 127 11 38 14 77 25 85 25 28 0 36 -31 20 -75 -8 -22 -19
-57 -24 -78 -16 -65 -47 -115 -114 -184 -36 -37 -74 -86 -85 -108 -26 -55 -30
-129 -8 -152 23 -22 47 -10 90 47 41 54 68 64 68 25 0 -14 -7 -39 -16 -56 -19
-38 -10 -69 21 -69 13 0 47 14 75 32 33 20 54 28 60 22 17 -17 -114 -421 -161
-496 -49 -81 -52 -140 -3 -91 91 91 162 248 197 439 8 45 32 119 52 164 48
106 57 140 44 156 -16 19 -38 6 -60 -37 -16 -32 -25 -39 -49 -39 -19 0 -34 8
-44 22 -28 40 -20 64 32 99 80 55 191 159 301 283 392 443 444 493 603 592 51
31 125 79 165 106 40 27 85 50 100 51 25 2 28 -2 31 -32 7 -69 -54 -163 -233
-358 -113 -122 -151 -178 -255 -373 -111 -208 -165 -284 -299 -421 -64 -66
-227 -325 -323 -514 -33 -66 -77 -149 -98 -185 -20 -36 -63 -112 -95 -170
-110 -199 -249 -380 -292 -380 -12 0 -23 3 -23 8 0 17 42 156 98 327 60 180
60 180 40 201 -19 22 -97 50 -117 43 -20 -7 -291 -300 -291 -314 0 -10 11 -15
33 -15 32 0 108 43 177 99 47 38 53 30 48 -64 -4 -82 -7 -91 -73 -220 l-68
-134 12 -75 c15 -89 6 -113 -42 -120 -85 -13 -1915 -26 -1959 -13 -38 10 -36
33 7 97 50 75 49 79 -32 95 -38 8 -40 17 -15 53 30 43 150 267 304 568 80 155
155 295 169 311 13 17 93 110 178 208 84 98 173 205 198 239 55 75 159 251
243 411 34 66 74 136 89 155 15 19 44 60 64 90 20 30 68 91 107 135 96 106
111 139 122 255 6 62 14 100 25 112 9 10 50 36 92 59 134 73 266 175 431 335
89 85 194 179 233 208 86 63 147 128 178 188 30 57 31 138 1 194 -42 81 -605
581 -815 724 l-110 75 -27 80 c-48 141 -154 337 -228 419 l-35 39 7 101 c3 56
11 119 17 141 15 56 77 175 176 343 108 181 141 265 157 397 9 72 18 110 33
131 32 45 100 185 121 250 11 33 23 84 26 114 l7 55 -93 82 c-51 45 -126 109
-166 143 -114 96 -171 180 -192 285 -7 33 -28 119 -48 190 -40 147 -48 258
-22 310 8 16 34 43 57 60 67 48 88 101 88 220 0 187 -41 224 -347 311 -10 3
-23 27 -33 61 -53 183 -201 482 -300 608 -80 102 -130 155 -144 155 -18 0
-190 -88 -261 -134 -36 -24 -99 -72 -140 -108 -68 -59 -120 -91 -120 -73 0 30
78 152 165 260 57 71 118 155 135 186 l30 56 -25 169 c-49 327 -65 402 -86
407 -10 3 -22 13 -25 24 -19 60 -24 67 -40 51 -11 -10 -22 -81 -40 -254 -19
-178 -29 -243 -41 -256 -15 -17 -15 -21 2 -57 21 -48 15 -85 -27 -143 -44 -61
-54 -73 -365 -388 -155 -157 -291 -296 -302 -310 -141 -171 -191 -254 -191
-314 0 -67 303 -565 466 -767 85 -105 100 -163 53 -214 -17 -19 -17 -22 20
-100 62 -130 108 -158 261 -157 115 1 150 -9 188 -53 24 -26 31 -47 37 -97 19
-170 92 -398 250 -788 119 -292 131 -334 100 -346 -8 -4 -31 6 -49 20 -19 14
-39 26 -44 26 -12 0 -52 44 -52 58 0 7 -33 47 -72 90 -47 50 -124 157 -215
298 -147 227 -209 300 -328 386 -98 70 -108 73 -245 72 -163 0 -239 -29 -177
-68 12 -8 31 -5 71 8 79 27 153 19 251 -27 145 -69 254 -188 356 -386 101
-200 223 -333 459 -501 211 -151 329 -238 420 -311 91 -73 200 -194 250 -279
17 -28 55 -88 85 -131 54 -80 87 -152 99 -221 9 -49 -7 -50 -89 -4 -33 18 -87
48 -119 66 -33 18 -76 36 -97 40 -62 11 -35 -17 75 -79 52 -30 112 -72 132
-92 l37 -38 -24 -36 c-21 -31 -74 -76 -166 -140 -13 -9 -23 -20 -23 -25 0 -16
32 -11 86 14 57 27 96 63 125 118 23 44 44 52 93 35 50 -17 305 -213 528 -406
99 -86 206 -177 238 -203 68 -55 162 -163 191 -220 20 -38 20 -41 2 -86 -9
-26 -42 -74 -73 -107 -54 -60 -347 -322 -425 -380 -22 -17 -47 -36 -55 -44
-19 -19 -340 -257 -400 -298 -25 -16 -92 -54 -150 -84 -195 -99 -402 -276
-624 -534 -66 -77 -123 -142 -127 -145 -3 -3 -29 -32 -57 -65 -155 -184 -267
-266 -309 -224 -13 13 91 228 172 353 70 109 85 143 85 195 0 43 -18 61 -60
61 -30 0 -95 -35 -118 -65 -11 -14 -22 -25 -25 -25 -17 0 -180 -84 -206 -106
-32 -27 -42 -64 -16 -64 8 0 55 14 105 30 143 47 155 30 93 -133 -36 -97 -39
-100 -149 -210 -116 -116 -134 -146 -134 -226 0 -30 2 -33 25 -27 14 4 46 20
72 36 61 39 93 40 93 3 0 -16 -7 -46 -14 -68 -16 -47 -7 -76 23 -68 11 3 43
25 71 49 69 59 89 69 96 50 10 -26 -35 -143 -143 -375 -107 -229 -128 -291
-101 -291 20 0 76 101 208 374 158 324 195 434 154 450 -26 10 -34 7 -34 -11
-1 -23 -52 -116 -67 -120 -13 -5 -73 78 -73 100 0 20 39 53 90 75 73 32 282
249 415 431 35 48 82 102 105 120 23 18 83 70 133 115 168 149 382 301 415
294 13 -3 17 -13 16 -43 -1 -34 -13 -57 -84 -150 -45 -60 -124 -173 -175 -250
-87 -132 -124 -192 -293 -480 -38 -66 -92 -145 -118 -176 -27 -31 -85 -103
-129 -160 -44 -57 -110 -139 -147 -182 -36 -44 -88 -119 -113 -168 -26 -48
-62 -105 -79 -126 -18 -21 -45 -67 -60 -103 -42 -96 -149 -308 -224 -445 -91
-166 -166 -242 -186 -189 -8 20 9 93 38 162 13 32 34 89 45 127 12 39 40 109
62 157 22 48 43 102 46 120 5 31 1 36 -50 71 -67 47 -68 46 -226 -67 -132 -95
-171 -131 -171 -157 0 -35 45 -28 139 22 81 43 144 52 155 23 16 -42 -11 -128
-95 -305 -81 -170 -92 -221 -60 -273 l22 -35 -23 -13 c-18 -10 -229 -14 -1058
-16 -967 -3 -1349 3 -1367 21 -18 19 67 137 99 137 4 0 28 -18 52 -40 58 -53
94 -53 122 1 8 16 28 45 45 64 36 41 33 61 -11 78 -17 6 -30 14 -30 18 0 3 18
33 39 67 22 34 81 137 132 229 167 306 242 428 373 608 97 134 354 471 412
540 23 28 92 145 152 262 129 248 148 277 247 379 85 87 109 131 157 288 27
89 39 113 63 132 213 164 273 214 376 312 l121 116 60 -13 c34 -7 104 -30 157
-50 253 -100 321 -111 441 -71 84 28 230 97 314 148 37 23 71 42 75 42 3 0 34
-39 68 -88 70 -99 79 -110 176 -208 l69 -72 -43 -73 c-88 -150 -255 -379 -361
-494 -16 -16 -31 -38 -34 -48 -21 -64 73 1 170 117 46 56 94 110 106 121 12
11 35 45 50 76 16 30 45 75 65 100 21 24 77 96 125 159 189 247 378 447 515
545 87 62 173 105 210 105 34 0 115 51 115 73 0 23 -196 88 -337 112 -54 9
-109 23 -123 30 -14 7 -52 18 -85 25 -33 6 -79 23 -102 36 -23 13 -51 24 -62
24 -11 0 -32 10 -46 23 -41 35 -43 86 -6 185 17 46 31 101 31 122 0 133 -136
301 -386 476 -51 35 -95 71 -98 80 -9 22 17 60 54 79 16 8 60 22 97 30 37 9
74 18 80 20 43 15 -83 104 -192 136 -38 12 -99 37 -135 56 -61 33 -72 36 -200
44 -74 5 -162 14 -195 19 -33 6 -73 13 -90 16 -75 13 -235 57 -323 90 -138 52
-353 156 -401 195 -43 34 -60 34 -42 1 14 -26 109 -112 166 -150 134 -89 523
-194 808 -218 57 -5 77 -10 77 -21 0 -7 -24 -37 -52 -66 -64 -63 -140 -188
-174 -287 -53 -151 -79 -368 -54 -435 6 -15 42 -75 81 -134 83 -125 171 -198
194 -161 8 12 -30 70 -99 150 -103 119 -134 222 -88 288 46 63 273 271 325
297 88 42 112 38 182 -32 33 -32 112 -98 175 -144 123 -92 171 -142 215 -228
39 -78 44 -153 15 -233 -43 -119 -69 -123 -219 -32 -122 74 -241 115 -241 84
0 -13 137 -122 235 -185 78 -51 224 -128 295 -155 19 -7 43 -20 52 -28 26 -22
118 -263 118 -309 0 -45 -11 -61 -156 -213 -50 -52 -110 -116 -134 -143 -23
-26 -46 -47 -50 -47 -22 0 -105 91 -158 172 -90 140 -212 362 -238 434 -32 87
-24 106 57 135 71 26 119 62 119 90 0 26 -29 24 -69 -5 -53 -39 -191 -94 -308
-122 -59 -15 -139 -34 -178 -43 -63 -16 -70 -20 -70 -42 0 -18 6 -25 26 -27
24 -3 236 46 293 67 22 9 29 5 60 -29 36 -40 58 -97 78 -209 l12 -63 -35 -29
c-19 -16 -65 -45 -104 -64 -77 -38 -140 -50 -323 -60 -102 -6 -116 -5 -157 15
-44 21 -113 35 -235 45 -36 4 -72 10 -80 15 -19 12 -10 19 135 107 60 37 128
85 150 108 70 69 83 171 34 268 -35 68 -96 143 -157 188 -54 41 -108 90 -323
294 -87 83 -316 256 -462 349 l-58 37 8 47 c28 175 -23 315 -183 498 l-66 76
7 51 c9 69 67 192 171 359 122 196 174 326 174 437 0 45 6 62 39 112 67 100
86 173 85 319 -2 191 -7 199 -183 309 -165 104 -231 192 -231 311 0 37 -9 100
-20 141 -11 41 -30 113 -41 160 l-22 86 38 64 c20 35 55 88 77 116 54 71 67
112 68 216 0 121 -10 140 -116 219 -122 90 -140 98 -224 98 -104 0 -134 20
-146 100 -7 48 -66 190 -116 280 -17 30 -85 137 -151 236 l-120 182 -41 -5
c-51 -5 -151 -39 -193 -65 -18 -11 -77 -55 -130 -99 -93 -75 -133 -95 -133
-66 0 26 78 122 149 185 42 38 74 74 77 90 4 15 16 42 27 61 43 71 28 317 -27
437 -13 27 -26 72 -31 99 -11 77 -29 105 -69 105 -20 0 -40 8 -51 20 -10 11
-22 17 -26 13 -12 -12 -26 -133 -29 -238 -1 -49 -4 -93 -6 -97 -3 -5 2 -59 12
-120 21 -140 14 -175 -57 -265 -28 -34 -57 -66 -64 -70 -7 -5 -41 -33 -76 -63
-320 -280 -493 -449 -552 -542 -49 -75 -123 -226 -136 -276 -14 -52 -1 -80
109 -237 43 -60 90 -136 105 -168 17 -35 71 -104 136 -177 157 -174 199 -243
199 -327 0 -44 -20 -123 -31 -123 -21 0 9 -35 68 -80 79 -59 118 -68 204 -46
62 16 63 16 88 -7 14 -13 63 -50 108 -81 91 -65 110 -94 123 -184 15 -109 126
-414 210 -575 131 -253 200 -434 200 -523 0 -47 -19 -94 -39 -94 -24 0 -139
70 -248 152 -132 99 -198 186 -318 420 -177 346 -263 450 -421 509 -49 18 -71
21 -145 16 -108 -7 -205 -45 -329 -129 -81 -54 -106 -74 -188 -149 -54 -48
-103 -77 -162 -93 -79 -22 -243 -39 -309 -32 -31 3 -83 9 -116 11 -33 3 -105
12 -160 20 -154 22 -372 38 -451 33 -59 -4 -84 -12 -140 -42 -208 -114 -378
-320 -462 -561 -34 -99 -35 -102 -39 -305 -6 -236 6 -329 62 -498 93 -277 197
-421 403 -555 73 -48 118 -70 154 -77 29 -6 81 -22 116 -36 35 -14 90 -30 122
-35 32 -5 71 -16 86 -24 16 -8 36 -15 45 -15 53 0 121 -34 184 -91 73 -66 102
-73 97 -24 -2 17 -9 39 -16 50 -21 32 -78 84 -100 91 -12 4 -40 24 -63 45 -44
40 -46 41 -158 59 -94 15 -110 22 -260 108 -173 99 -205 122 -256 184 -24 29
-68 78 -97 108 -119 122 -198 279 -226 448 -31 184 -39 297 -26 374 40 240
138 428 310 599 116 115 216 154 395 153 85 0 113 -5 190 -31 50 -18 108 -35
130 -38 22 -4 57 -19 78 -33 37 -24 48 -26 185 -30 167 -5 274 8 347 42 30 14
95 65 160 126 138 128 223 193 300 229 175 82 332 64 464 -55 75 -68 109 -119
230 -353 168 -324 211 -380 371 -488 97 -65 124 -79 321 -159 386 -157 489
-223 624 -399 67 -88 95 -166 98 -271 2 -78 -11 -107 -47 -100 -36 6 -100 36
-121 56 -34 32 -147 80 -189 80 l-39 0 19 -21 c29 -32 97 -69 166 -90 68 -21
162 -79 178 -109 15 -27 -2 -61 -50 -102 -44 -39 -143 -94 -175 -99 -26 -5
-208 101 -295 171 -92 74 -201 181 -197 194 3 9 139 87 171 99 22 7 -5 53 -41
70 -21 9 -49 23 -63 31 -42 22 -112 58 -170 87 -59 29 -195 66 -275 74 -27 3
-59 7 -70 10 -11 2 -87 9 -170 15 -287 20 -450 46 -566 89 -67 25 -163 82
-204 120 -40 37 -106 81 -123 81 -9 0 -6 -10 10 -32 72 -104 207 -188 391
-247 105 -33 188 -48 467 -81 168 -21 276 -40 299 -55 21 -13 10 -34 -41 -80
-64 -58 -177 -214 -231 -320 l-40 -80 1 -134 c1 -130 2 -137 33 -199 43 -88
164 -215 236 -248 61 -28 91 -30 119 -10 17 13 18 17 4 39 -8 14 -57 59 -107
101 -92 76 -167 159 -184 205 -17 44 31 124 139 231 106 105 182 151 284 171
66 13 95 5 143 -39 42 -38 192 -156 307 -240 53 -39 102 -80 107 -91 15 -28
14 -83 -5 -154 -10 -39 -13 -77 -9 -105 8 -56 -13 -92 -55 -92 -33 0 -234 91
-265 120 -29 27 -137 61 -152 48 -7 -6 -13 -14 -13 -17 0 -9 159 -129 230
-173 30 -19 125 -68 210 -108 85 -40 158 -76 162 -79 4 -4 1 -19 -7 -34 -13
-25 -11 -37 31 -155 25 -70 56 -151 69 -181 27 -58 27 -58 -27 -122 -21 -24
-81 -98 -134 -164 -53 -66 -97 -121 -98 -121 -1 -1 -11 -5 -23 -8 -42 -13 -93
54 -309 409 -78 127 -146 273 -136 291 11 19 83 74 97 74 18 0 115 89 115 106
0 21 -50 17 -97 -8 -211 -115 -261 -134 -413 -158 -41 -6 -100 -16 -130 -21
-100 -18 -303 -23 -356 -10 -27 7 -66 15 -86 17 -133 16 -422 120 -523 188
-27 18 -62 36 -77 40 -15 3 -32 15 -38 26 -6 11 -24 26 -39 35 -16 8 -35 20
-43 28 -30 30 -108 77 -127 77 -47 0 -10 -54 106 -155 133 -117 343 -217 573
-274 156 -38 269 -50 480 -52 153 -1 171 1 250 26 136 43 166 49 201 39 43
-12 68 -48 78 -112 10 -65 -2 -84 -64 -105 -25 -9 -58 -29 -74 -44 -36 -36
-188 -116 -271 -142 -98 -31 -211 -42 -300 -29 -82 12 -120 29 -194 87 -81 65
-206 89 -341 67 -111 -18 -278 -70 -327 -102 -29 -19 -69 -39 -88 -45 -56 -16
-338 -41 -420 -37 -140 6 -315 114 -412 254 -38 54 -51 131 -38 220 18 132 63
215 138 253 31 17 29 51 -3 51 -64 0 -135 -63 -175 -153 -59 -133 -66 -343
-16 -452 29 -65 100 -166 142 -207 37 -34 169 -95 248 -113 151 -36 256 -15
546 110 298 129 387 155 537 156 57 1 80 -4 122 -25 50 -26 117 -84 158 -138
40 -53 187 -72 344 -44 92 17 155 43 212 89 23 19 83 55 132 80 50 25 110 61
134 81 45 38 72 45 89 24 36 -44 313 -474 318 -493 6 -25 -53 -111 -145 -210
-25 -27 -55 -62 -66 -76 -11 -15 -44 -53 -72 -85 -67 -75 -94 -110 -127 -158
-28 -41 -35 -86 -13 -86 15 0 143 129 244 246 39 45 160 193 269 330 206 259
350 413 469 502 82 61 233 141 325 171 71 23 142 60 146 76 6 19 -209 108
-459 190 -139 45 -282 96 -318 113 -85 38 -89 52 -54 174 14 50 26 114 26 142
0 28 7 61 15 73 7 12 50 49 94 83 43 33 96 81 117 105 75 90 127 65 484 -226
132 -108 399 -358 454 -426 91 -112 117 -202 77 -268 -21 -34 -176 -162 -272
-225 -36 -23 -90 -66 -120 -95 -30 -28 -95 -86 -145 -129 -49 -42 -98 -83
-108 -92 -52 -44 -323 -246 -477 -354 -194 -137 -546 -397 -600 -445 -73 -63
-133 -134 -205 -240 -77 -115 -163 -212 -235 -264 -47 -34 -80 -40 -80 -15 0
42 98 249 202 425 23 39 36 73 32 82 -9 25 -90 87 -112 87 -11 0 -38 -15 -60
-33 -22 -18 -85 -66 -141 -106 -99 -72 -131 -103 -131 -128 0 -19 52 -16 110
7 63 25 82 25 103 2 37 -41 10 -113 -86 -229 -93 -113 -127 -170 -127 -214 0
-45 7 -50 84 -64 55 -10 59 -13 70 -45 13 -43 38 -48 101 -25 79 31 98 -1 45
-73 -16 -23 -34 -62 -40 -87 -6 -26 -24 -73 -41 -106 -16 -34 -48 -101 -69
-149 -22 -49 -51 -107 -64 -129 -25 -39 -27 -40 -73 -37 -63 4 -123 -19 -203
-79 -36 -26 -90 -59 -120 -73 -93 -42 -126 -88 -81 -112 29 -15 61 -12 124 9
31 11 77 23 103 27 l47 7 -6 -51 c-6 -55 -66 -182 -129 -275 -73 -108 -83
-159 -47 -234 12 -24 18 -47 14 -51 -13 -13 -169 -19 -555 -21 -211 -1 -388
-5 -391 -9 -4 -4 -9 -19 -13 -34 -11 -47 10 -51 344 -60 168 -4 2683 -5 5590
-3 2907 3 5291 5 5298 5 9 0 12 11 10 32 -3 30 -7 33 -43 40 -51 9 -1231 27
-1875 29 -600 1 -884 9 -901 26 -9 9 -4 26 23 75 56 101 110 111 121 22 7 -70
17 -73 90 -25 73 48 112 85 103 100 -4 6 -23 13 -44 17 -45 8 -72 30 -72 58 0
12 28 59 61 106 55 76 122 203 246 470 52 110 205 308 442 570 223 245 346
397 372 456 9 23 22 45 29 49 20 12 58 82 90 161 49 128 90 188 257 379 81 92
103 134 103 198 0 55 -24 82 -46 52 -8 -10 -14 -37 -14 -60 0 -39 -5 -45 -89
-123 -105 -97 -207 -243 -356 -512 -106 -192 -171 -287 -285 -420 -85 -100
-163 -192 -202 -241 -15 -19 -50 -63 -79 -99 -217 -272 -346 -487 -424 -704
-21 -59 -42 -96 -85 -145 -32 -37 -64 -80 -73 -96 -15 -31 -88 -95 -106 -95
-20 0 -11 47 35 192 60 187 130 334 173 364 11 8 34 40 52 72 18 31 43 71 56
88 13 17 32 56 42 87 11 31 62 152 114 269 122 275 167 408 140 408 -19 -1
-34 -19 -57 -71 -31 -70 -48 -86 -81 -71 -13 6 -31 22 -40 36 -24 37 -8 59
130 173 119 99 155 138 224 239 45 65 358 368 471 456 259 199 485 348 686
452 144 74 279 171 506 363 198 168 213 185 244 273 24 70 25 76 10 107 -22
46 -450 488 -546 564 -44 34 -102 75 -129 89 -27 15 -82 54 -123 87 -40 33
-101 77 -136 98 -37 22 -64 47 -67 59 -3 12 -10 44 -15 71 -17 81 -80 276
-105 325 -13 25 -46 77 -75 115 l-52 70 6 67 c10 141 110 369 227 520 82 107
95 144 113 326 13 125 16 137 45 175 96 127 135 311 90 428 -6 15 -59 65 -122
115 -103 81 -156 126 -228 195 -37 35 -127 309 -136 413 -9 112 7 156 87 241
84 88 105 138 98 233 -12 160 -137 282 -326 318 -94 18 -116 32 -136 86 -115
316 -144 379 -269 580 -82 133 -131 188 -165 188 -27 0 -211 -105 -287 -163
-124 -95 -256 -229 -241 -244 12 -12 59 18 149 97 157 136 346 243 392 222 70
-32 281 -394 350 -602 31 -92 31 -90 1 -90 -119 0 -401 237 -430 362 -7 31
-31 58 -52 58 -7 0 -20 -15 -28 -34 l-14 -35 -74 6 -73 5 -78 -56 c-100 -71
-126 -85 -182 -93 -83 -11 -89 25 -20 127 18 26 35 61 39 77 11 42 80 156 160
261 128 169 173 238 191 292 16 47 16 62 6 119 -7 36 -21 91 -31 121 -10 30
-21 94 -24 142 -4 74 -2 95 15 134 18 39 19 50 9 75 -10 22 -19 29 -41 29 -24
0 -32 7 -51 47 -25 51 -37 60 -56 41z m68 -163 c10 -13 10 -23 -3 -57 -16 -39
-15 -48 14 -207 49 -259 34 -337 -87 -473 -79 -88 -123 -155 -205 -315 -93
-179 -137 -247 -172 -268 -36 -22 -64 -67 -73 -119 -9 -54 -42 -125 -66 -139
-12 -8 -18 -24 -18 -46 0 -27 8 -40 37 -65 109 -92 168 -157 288 -317 154
-203 282 -331 401 -401 83 -49 152 -115 281 -270 42 -51 97 -103 130 -125 72
-48 115 -110 148 -216 39 -123 50 -257 35 -414 -7 -72 -16 -137 -21 -144 -7
-12 -16 -10 -50 9 -23 12 -44 20 -47 18 -9 -10 12 -48 49 -87 21 -22 39 -47
39 -54 0 -35 -72 -211 -103 -251 -55 -71 -133 -121 -141 -91 -2 6 -11 46 -21
87 -28 114 -84 277 -165 470 -89 213 -125 336 -140 472 l-11 103 -207 205
c-198 195 -215 216 -367 430 -263 370 -435 632 -435 662 0 46 35 120 111 232
72 108 130 173 408 461 231 240 361 408 361 468 0 17 -9 84 -21 151 -23 131
-20 225 7 277 16 33 26 36 44 14z m-7514 -37 c4 -7 7 -49 5 -93 -2 -69 1 -88
19 -118 16 -26 29 -37 46 -37 17 0 31 -10 45 -32 18 -30 20 -45 16 -148 -5
-140 -21 -176 -129 -302 -46 -54 -101 -136 -147 -220 -40 -73 -87 -151 -102
-172 -16 -22 -29 -45 -29 -51 0 -15 -75 -86 -131 -123 -41 -28 -47 -37 -54
-78 -4 -26 -29 -90 -56 -141 l-49 -95 47 -55 c26 -30 79 -80 118 -110 70 -55
204 -208 310 -355 71 -98 122 -142 264 -231 63 -40 135 -92 160 -118 42 -41
182 -236 193 -270 4 -11 9 -10 26 5 31 27 62 14 122 -51 111 -122 138 -187
154 -373 8 -93 -8 -216 -33 -250 -15 -20 -26 -25 -57 -22 l-39 2 37 -20 c74
-40 83 -82 42 -195 -14 -38 -30 -94 -35 -123 -12 -66 -52 -147 -80 -162 -36
-20 -64 9 -83 84 -20 80 -84 227 -175 401 -90 173 -148 315 -182 454 -18 73
-38 128 -56 154 -25 35 -154 149 -266 232 -58 43 -94 80 -262 268 -82 92 -172
200 -199 240 -27 40 -79 110 -116 157 -104 132 -190 250 -211 292 l-19 38 47
112 c51 122 128 244 201 322 26 26 110 101 187 166 169 141 380 342 421 401
27 39 29 48 27 123 -1 45 -11 141 -22 214 -18 120 -19 138 -6 175 8 23 15 59
15 80 0 37 20 51 36 25z m4892 -213 c18 -15 34 -41 41 -69 14 -59 14 -231 -1
-259 -6 -12 -33 -46 -60 -75 -26 -30 -60 -75 -75 -100 -14 -26 -57 -99 -94
-162 -37 -63 -83 -156 -103 -206 -54 -144 -82 -191 -126 -219 -41 -26 -65 -64
-100 -159 -12 -30 -34 -71 -51 -92 -28 -36 -29 -38 -13 -63 52 -80 142 -189
245 -296 122 -127 207 -219 302 -329 32 -36 92 -89 132 -116 149 -101 280
-235 336 -345 l30 -60 -6 60 c-13 115 -69 186 -290 370 -94 78 -200 174 -235
215 -36 40 -112 122 -169 181 -140 146 -137 141 -112 183 23 37 74 66 114 66
14 0 38 5 54 11 15 5 63 16 106 24 121 21 138 49 96 159 -12 30 -19 62 -16 71
14 34 104 5 229 -74 82 -51 125 -99 134 -147 8 -43 28 -53 66 -31 82 47 112 8
116 -151 l2 -113 54 -118 c59 -128 107 -269 127 -371 13 -66 43 -130 61 -130
7 0 8 27 4 81 -9 94 -1 109 54 109 24 0 43 7 55 20 10 11 26 20 36 20 22 0 49
-37 49 -66 0 -12 14 -67 30 -122 19 -63 30 -124 30 -161 0 -53 4 -65 43 -122
54 -79 64 -109 77 -229 19 -183 8 -299 -34 -355 -15 -20 -15 -20 -30 1 -8 12
-53 68 -98 125 -89 112 -156 213 -178 269 -36 94 -219 280 -276 280 -13 0 -24
-3 -24 -6 0 -3 18 -27 41 -52 54 -62 106 -174 124 -264 16 -83 35 -309 35
-410 l0 -68 -46 0 c-37 0 -45 -3 -42 -17 2 -9 17 -21 35 -27 17 -6 34 -14 38
-17 7 -7 -31 -130 -91 -294 -35 -93 -53 -128 -80 -153 -19 -18 -40 -32 -47
-29 -6 2 -23 46 -38 98 -15 52 -78 220 -139 374 -140 350 -153 390 -186 556
-18 91 -34 145 -50 169 -13 19 -83 91 -155 160 -115 108 -177 176 -348 380
-120 143 -541 739 -541 766 0 17 83 125 186 244 46 52 181 192 301 310 465
460 441 428 429 559 -19 220 -20 241 -3 241 8 0 29 -11 45 -25z m-2272 -83
c18 -39 32 -200 20 -246 -4 -15 -28 -50 -55 -80 -99 -110 -140 -174 -329 -525
-85 -158 -104 -186 -133 -200 -26 -13 -37 -26 -48 -61 -25 -83 -40 -109 -72
-125 -29 -15 -31 -20 -26 -55 4 -32 20 -54 100 -134 53 -52 151 -168 218 -258
150 -200 221 -271 369 -373 186 -128 327 -277 412 -434 11 -19 25 -31 38 -31
31 0 97 -66 125 -126 48 -101 63 -187 66 -365 2 -158 -7 -219 -30 -219 -23 0
-59 21 -103 60 -37 32 -49 38 -54 27 -9 -25 21 -69 77 -112 41 -31 57 -51 68
-83 12 -40 11 -48 -20 -135 -45 -127 -80 -196 -125 -240 -35 -35 -78 -56 -90
-44 -3 2 -20 64 -40 137 -40 154 -120 378 -229 643 -62 152 -81 211 -99 309
l-22 121 -75 62 c-120 100 -317 311 -421 450 -283 381 -351 476 -379 535 -17
35 -51 95 -76 132 -36 53 -44 73 -39 94 12 45 146 235 240 339 50 55 140 147
200 205 147 141 350 362 395 430 58 86 64 107 56 207 -6 81 -5 90 14 115 27
33 44 28 67 -20z m-2148 -630 c66 -98 136 -209 157 -246 53 -95 124 -260 131
-304 3 -20 8 -40 10 -44 3 -4 -11 -10 -30 -13 -51 -10 -99 18 -190 111 -45 44
-110 100 -146 124 -36 24 -77 54 -92 68 -25 23 -27 30 -22 77 6 48 4 55 -24
86 -26 29 -32 32 -46 20 -21 -17 -21 -59 1 -83 13 -14 14 -21 5 -30 -9 -9 -21
-7 -51 10 -68 38 -159 25 -321 -49 -102 -45 -122 -43 -100 10 15 38 187 194
356 324 45 35 199 116 221 116 18 1 45 -33 141 -177z m4794 86 c25 -40 67
-113 93 -163 26 -49 58 -104 70 -120 38 -51 175 -333 175 -359 0 -31 -26 -40
-86 -31 -33 5 -65 22 -122 65 -136 103 -187 158 -211 225 -55 155 -67 163
-139 93 l-43 -43 -82 -1 c-74 0 -91 -4 -176 -42 -51 -23 -109 -44 -128 -48
l-35 -7 7 34 c18 87 71 146 191 217 38 22 102 70 142 105 68 61 95 77 245 137
43 17 53 10 99 -62z m-2306 0 c74 -70 121 -144 215 -334 90 -183 155 -352 141
-366 -5 -5 -27 -12 -48 -15 -36 -4 -49 2 -149 69 -205 137 -281 233 -294 370
l-6 62 -61 -57 -61 -56 -104 -16 c-132 -19 -158 -28 -247 -82 -114 -69 -133
-39 -57 87 24 41 45 81 45 88 0 15 15 15 39 0 30 -18 95 22 203 126 109 105
225 175 291 176 32 0 46 -8 93 -52z m4694 -550 c106 -101 179 -162 218 -182
28 -14 38 -15 67 -5 50 18 85 3 113 -49 14 -25 26 -67 29 -100 5 -52 3 -61
-21 -89 l-26 -31 35 -74 c38 -83 89 -249 161 -523 61 -232 69 -251 94 -205 13
24 5 83 -26 183 -31 100 -30 107 4 107 15 0 48 7 73 16 98 35 118 4 150 -223
23 -165 44 -222 101 -275 51 -47 68 -102 75 -256 6 -118 -8 -235 -31 -267 -22
-31 -53 -9 -85 60 -28 59 -102 160 -241 330 -80 97 -246 256 -302 289 -33 19
-56 43 -78 82 -40 71 -179 209 -256 253 -138 81 -269 193 -351 304 -26 35 -83
105 -126 155 -76 89 -78 93 -68 127 18 67 -23 124 -59 80 -19 -23 -43 -18 -77
18 -105 111 -50 144 97 57 97 -57 141 -63 196 -29 l34 21 62 -21 c78 -26 93
-26 112 1 30 42 18 127 -22 167 -17 18 -10 93 13 128 26 38 53 28 135 -49z
m-4982 23 c9 -11 25 -30 34 -44 10 -14 56 -49 103 -77 79 -48 123 -90 138
-132 9 -25 44 -22 79 7 36 30 39 30 70 6 47 -38 63 -157 29 -223 l-18 -37 40
-67 c53 -90 76 -159 136 -425 28 -123 56 -234 61 -246 12 -29 36 -29 50 -2 9
16 6 39 -14 110 -14 50 -26 99 -26 110 0 26 76 59 135 59 49 0 46 8 65 -155
19 -163 45 -236 143 -405 34 -59 47 -144 47 -308 0 -141 -5 -156 -47 -134 -10
6 -61 70 -113 143 -108 150 -207 256 -328 349 -101 77 -224 207 -252 266 -26
53 -123 139 -298 263 -158 112 -251 200 -319 301 -28 42 -72 100 -97 130 -26
30 -52 72 -58 93 -10 33 -9 40 8 56 40 38 228 66 275 40 34 -18 118 16 134 54
15 37 8 67 -34 141 -38 66 -39 98 -5 125 33 26 39 26 62 2z m-2541 -34 c21
-19 74 -60 118 -92 105 -75 133 -102 156 -147 l19 -38 67 0 c95 0 103 -10 103
-123 0 -89 0 -90 34 -121 24 -23 35 -43 40 -76 8 -52 48 -181 81 -260 22 -52
29 -83 55 -247 12 -77 29 -111 50 -98 12 8 11 39 -6 157 -6 46 -6 47 22 53 16
3 58 17 94 31 96 35 110 31 110 -32 0 -14 10 -38 21 -54 19 -25 22 -43 23
-159 l1 -130 41 -43 c23 -24 49 -57 58 -75 38 -76 62 -277 48 -403 -6 -56 -10
-65 -28 -68 -17 -2 -34 15 -80 80 -63 92 -261 314 -375 423 -98 94 -154 137
-214 168 -51 25 -135 116 -135 145 0 8 30 42 67 76 68 63 105 126 132 227 14
50 12 115 -4 112 -5 -1 -19 -30 -31 -65 -48 -144 -109 -230 -185 -261 -45 -19
-63 -10 -182 89 -48 41 -100 80 -115 88 -15 8 -71 63 -125 122 l-99 108 27 23
c14 13 36 23 48 23 35 0 100 -43 122 -79 11 -18 32 -47 47 -64 23 -27 29 -30
38 -17 28 40 -26 150 -90 182 -22 11 -58 18 -95 18 -53 0 -62 -3 -81 -27 -28
-34 -41 -28 -101 46 -53 63 -61 94 -39 132 15 26 15 31 1 52 -18 28 -11 39 20
31 14 -3 54 7 98 25 53 21 91 30 128 29 40 -1 55 3 65 17 19 26 18 44 -12 130
-42 121 -14 161 63 92z m1215 -4638 c273 -72 298 -79 298 -88 0 -14 -68 -55
-215 -131 -193 -100 -189 -102 -259 99 -35 101 -46 171 -26 171 5 0 97 -23
202 -51z m2423 -43 c30 -8 95 -18 143 -22 88 -6 179 -35 167 -53 -3 -6 -49
-33 -103 -62 -53 -29 -119 -67 -147 -86 -54 -36 -76 -40 -93 -20 -14 16 -72
239 -66 249 7 12 37 10 99 -6z m-2445 -981 c33 -40 -32 -140 -273 -419 -14
-16 -56 -88 -94 -160 -136 -262 -266 -459 -421 -639 -53 -62 -101 -116 -107
-122 -41 -37 -178 -248 -260 -401 -197 -367 -342 -601 -404 -651 -8 -7 -25
-13 -38 -13 -20 0 -23 5 -23 40 0 50 37 142 94 234 24 39 62 107 84 151 22 44
57 105 77 135 55 81 140 255 208 425 126 317 162 456 121 472 -22 8 -41 -19
-61 -87 -8 -30 -20 -61 -25 -67 -15 -18 -42 -16 -68 5 l-23 19 23 41 c13 23
59 70 108 109 110 89 151 136 242 277 41 64 90 129 110 144 19 15 69 58 110
97 45 42 106 86 150 109 63 33 303 204 405 290 35 29 48 32 65 11z m3264
-2514 c8 -15 18 -49 21 -73 6 -43 5 -46 -21 -52 -50 -13 -124 14 -106 38 5 6
12 23 15 37 8 33 44 79 62 79 8 0 21 -13 29 -29z m-2310 -53 c19 -27 21 -59 4
-76 -18 -18 -83 -14 -109 7 -21 17 -22 22 -11 45 21 47 91 61 116 24z"/>
<path d="M10710 7154 c0 -34 44 -164 55 -164 26 0 34 24 23 70 -13 53 -33 87
-59 101 -15 8 -19 6 -19 -7z"/>
<path d="M3287 7143 c-19 -18 11 -163 34 -163 13 0 11 80 -2 121 -14 40 -23
52 -32 42z"/>
<path d="M8058 8093 c-31 -35 -51 -88 -52 -137 -1 -46 1 -51 22 -54 40 -6 86
51 103 128 12 53 2 80 -31 80 -15 0 -34 -8 -42 -17z"/>
<path d="M7730 7860 c0 -15 15 -27 55 -44 30 -14 74 -38 99 -55 51 -36 52 -36
60 -16 7 19 -38 72 -93 107 -56 35 -121 39 -121 8z"/>
<path d="M8115 7661 c-36 -17 -84 -58 -74 -64 2 -1 19 -15 36 -31 l33 -30 25
24 c27 26 50 83 41 105 -7 19 -12 19 -61 -4z"/>
<path d="M8363 7628 c-6 -13 -14 -36 -18 -53 -3 -16 -25 -61 -47 -98 -22 -37
-38 -70 -35 -73 19 -20 112 79 127 136 20 75 -1 142 -27 88z"/>
<path d="M5756 7118 c4 -13 17 -61 30 -108 19 -72 25 -86 44 -88 21 -4 22 -1
15 45 -11 77 -59 173 -87 173 -5 0 -6 -10 -2 -22z"/>
<path d="M10672 8117 c-27 -12 -67 -85 -77 -139 -13 -71 59 -93 102 -30 35 53
58 122 47 140 -19 29 -47 41 -72 29z"/>
<path d="M10398 7902 c-44 -5 -33 -24 40 -67 50 -30 68 -47 70 -65 5 -35 20
-50 50 -50 23 0 24 3 19 36 -14 88 -99 156 -179 146z"/>
<path d="M10730 7683 c-35 -23 -80 -65 -80 -75 0 -4 14 -23 31 -43 39 -44 78
-47 108 -9 27 35 29 104 3 127 -23 21 -31 21 -62 0z"/>
<path d="M11025 7591 c-9 -28 -38 -77 -64 -109 -57 -68 -75 -99 -61 -107 32
-20 117 51 147 123 17 42 21 118 6 133 -8 8 -16 -5 -28 -40z"/>
<path d="M5736 8058 c-50 -58 -71 -139 -44 -166 29 -29 85 2 117 65 18 35 29
109 19 127 -16 29 -54 19 -92 -26z"/>
<path d="M5419 7861 c-1 -6 -2 -16 -3 -22 -1 -6 21 -19 48 -29 72 -28 112 -60
133 -105 22 -48 50 -55 44 -10 -6 51 -48 121 -87 146 -40 25 -133 39 -135 20z"/>
<path d="M5855 7631 c-6 -5 -35 -18 -65 -29 -30 -11 -59 -26 -64 -35 -24 -38
57 -65 100 -32 10 8 27 15 37 15 21 0 38 39 30 69 -6 22 -22 27 -38 12z"/>
<path d="M6007 7537 c-63 -136 -63 -171 0 -104 72 75 93 125 77 185 -11 41
-29 23 -77 -81z"/>
<path d="M3233 8139 c-28 -10 -58 -58 -80 -126 -16 -53 -16 -53 7 -78 31 -33
43 -32 76 8 38 44 66 112 62 149 -4 38 -34 60 -65 47z"/>
<path d="M3267 7634 c-37 -31 -67 -61 -67 -65 0 -13 71 -22 99 -13 53 19 94
124 51 132 -8 1 -45 -23 -83 -54z"/>
<path d="M1805 6051 c-225 -81 -326 -125 -438 -189 -67 -38 -147 -82 -177 -97
-30 -15 -64 -35 -75 -46 -50 -45 -115 -63 -230 -64 -60 0 -144 4 -185 9 -71 9
-74 8 -60 -9 42 -50 196 -81 325 -65 112 14 172 36 306 114 143 82 362 180
459 205 164 42 341 51 406 22 52 -24 78 -57 104 -137 24 -73 81 -151 133 -183
76 -47 120 -54 344 -57 117 -1 239 -8 270 -14 248 -51 463 -171 703 -392 90
-83 135 -117 142 -110 17 17 0 48 -65 107 -34 32 -90 84 -124 116 -38 36 -135
101 -258 174 -357 214 -526 265 -816 249 -112 -6 -130 -5 -157 12 -39 22 -76
74 -133 184 -62 120 -97 155 -176 180 -97 30 -198 27 -298 -9z"/>
<path d="M4565 6029 c-11 -16 1 -22 67 -36 85 -17 117 -51 188 -198 70 -143
110 -189 181 -204 80 -17 387 -59 484 -66 112 -8 205 -36 298 -90 40 -23 119
-70 177 -104 58 -33 111 -61 118 -61 18 0 -135 129 -218 185 -135 89 -263 138
-400 151 -36 4 -94 18 -130 31 -36 13 -101 28 -144 33 -145 17 -260 86 -307
185 -42 90 -89 140 -155 164 -58 22 -149 28 -159 10z"/>
<path d="M9590 6000 c0 -5 21 -31 48 -57 79 -79 193 -216 213 -256 48 -92 190
-139 507 -167 68 -6 135 -15 148 -20 45 -17 294 -190 360 -250 36 -33 75 -60
85 -60 18 0 19 2 4 29 -8 17 -41 51 -72 78 -32 26 -75 65 -96 86 -22 20 -42
37 -45 37 -3 0 -28 17 -56 39 -103 78 -166 98 -399 126 -249 29 -287 50 -459
254 -78 91 -135 149 -155 157 -38 16 -83 18 -83 4z"/>
<path d="M7080 5964 c0 -4 17 -25 38 -48 21 -23 67 -91 103 -150 100 -170 159
-226 265 -255 23 -6 111 -16 195 -21 85 -6 172 -15 193 -21 75 -20 262 -119
356 -189 52 -38 98 -70 103 -70 36 0 -69 109 -169 177 -141 96 -301 158 -484
188 -239 38 -259 45 -326 117 -23 24 -74 87 -113 140 -39 53 -87 106 -105 117
-33 21 -56 27 -56 15z"/>
<path d="M7030 5496 c0 -20 122 -131 201 -182 146 -95 368 -181 575 -223 84
-17 89 -19 92 -46 2 -18 -23 -84 -76 -199 -93 -199 -115 -272 -115 -376 -1
-178 103 -364 217 -390 69 -15 58 38 -31 146 -75 90 -83 105 -83 149 0 44 8
59 88 155 128 153 203 220 309 274 l53 26 59 -43 c33 -24 113 -94 178 -156 65
-63 142 -129 172 -148 49 -31 55 -33 70 -19 14 15 8 23 -69 99 -47 45 -144
125 -217 176 -72 51 -134 99 -137 106 -6 18 28 48 93 82 74 38 84 57 48 88
-47 41 -206 86 -342 96 -328 23 -561 86 -802 215 -56 29 -107 54 -114 54 -6 0
-43 29 -81 65 -72 66 -88 76 -88 51z"/>
<path d="M8756 4328 c-4 -40 -15 -125 -24 -188 l-17 -115 -66 6 c-47 4 -80 14
-115 34 -150 88 -244 125 -244 96 0 -27 250 -189 399 -258 114 -53 134 -69
173 -148 36 -71 93 -218 101 -261 6 -29 2 -33 -53 -69 -46 -30 -79 -65 -151
-162 -96 -129 -117 -148 -149 -138 -70 22 -330 426 -370 574 -19 73 -3 96 104
145 98 46 136 76 96 76 -12 0 -119 -40 -238 -89 -119 -48 -257 -101 -307 -116
-49 -15 -92 -29 -94 -31 -3 -2 4 -11 15 -19 32 -24 90 -18 177 21 45 19 103
38 129 41 43 5 48 4 57 -18 6 -13 28 -64 49 -114 70 -166 220 -409 324 -525
l38 -42 -42 -71 c-56 -95 -170 -244 -285 -373 -81 -91 -123 -149 -123 -169 0
-19 44 3 97 50 116 104 271 301 483 615 83 122 249 290 361 363 83 55 331 185
417 219 90 35 44 58 -255 127 -113 26 -182 47 -199 60 -15 12 -41 21 -59 21
-27 0 -209 83 -237 109 -6 5 1 51 43 285 8 50 -5 136 -21 136 -4 0 -11 -33
-14 -72z m397 -587 c98 -21 185 -44 193 -52 12 -12 -7 -25 -136 -92 -128 -66
-154 -76 -171 -66 -12 6 -38 48 -60 94 -21 46 -43 86 -49 90 -11 7 -14 48 -3
58 12 12 46 8 226 -32z"/>
<path d="M10810 4182 c0 -13 48 -55 147 -126 46 -32 86 -68 89 -80 14 -43
-122 -122 -321 -187 -115 -38 -352 -80 -461 -82 -87 -2 -104 -5 -102 -17 4
-19 84 -38 168 -39 69 -1 259 38 307 62 51 27 101 32 123 12 11 -10 20 -27 20
-38 0 -11 18 -52 40 -92 48 -86 50 -116 13 -145 -40 -31 -259 -135 -339 -160
-118 -38 -280 -26 -424 30 -56 22 -193 45 -216 36 -14 -5 -14 -9 -3 -22 19
-23 130 -76 259 -124 102 -37 125 -42 200 -42 47 0 114 7 150 17 84 21 228 91
306 148 68 50 116 77 138 77 21 0 99 -96 130 -160 15 -30 51 -88 81 -129 59
-80 64 -95 39 -144 -17 -33 -128 -184 -148 -202 -6 -5 -51 -62 -99 -125 -48
-63 -108 -139 -132 -168 -41 -48 -60 -102 -36 -102 13 0 85 51 94 66 5 8 52
64 106 124 54 60 131 158 171 217 40 59 116 159 168 222 130 154 362 387 443
444 69 49 204 121 254 137 86 26 159 56 163 68 6 20 -133 79 -266 112 -65 16
-135 36 -155 45 -20 8 -46 15 -58 15 -12 0 -47 12 -78 27 -45 21 -75 28 -148
31 l-93 4 0 43 0 43 -46 7 c-25 3 -93 31 -152 62 -59 31 -142 73 -184 95 -78
40 -148 59 -148 40z m426 -278 c150 -91 189 -105 409 -149 283 -56 323 -82
215 -136 -132 -66 -181 -89 -194 -89 -27 0 -68 44 -101 109 -18 37 -41 74 -51
82 -16 13 -17 11 -11 -37 3 -29 20 -82 36 -119 17 -37 31 -79 31 -93 0 -25
-32 -61 -127 -140 -29 -23 -76 -77 -105 -119 -29 -43 -66 -84 -81 -93 -28 -15
-29 -15 -74 35 -70 78 -205 289 -332 518 -45 83 -38 98 65 133 27 9 70 33 95
54 64 54 110 80 140 80 14 0 52 -16 85 -36z"/>
<path d="M8194 3419 c-51 -54 -129 -91 -387 -185 -28 -11 -48 -12 -82 -4 -24
5 -97 13 -161 17 -95 5 -116 4 -112 -7 2 -7 26 -21 54 -31 27 -9 92 -36 144
-59 136 -61 159 -60 317 20 137 69 238 151 274 222 32 63 3 80 -47 27z"/>
</g>
</svg>
